<svg width="24" height="24" viewBox="0 0 24 24" fill="none" xmlns="http://www.w3.org/2000/svg">
<path d="M8.25 17C8.25 16.5858 7.91421 16.25 7.5 16.25C7.08579 16.25 6.75 16.5858 6.75 17H8.25ZM7.5 22H6.75C6.75 22.4142 7.08579 22.75 7.5 22.75V22ZM16.5 22V22.75C16.9142 22.75 17.25 22.4142 17.25 22H16.5ZM17.25 17C17.25 16.5858 16.9142 16.25 16.5 16.25C16.0858 16.25 15.75 16.5858 15.75 17H17.25ZM15.9675 2.00003V2.75003L15.9694 2.75003L15.9675 2.00003ZM4.62447 5.51995L5.35207 5.33804L5.34764 5.32031L5.34234 5.30281L4.62447 5.51995ZM7.49455 17L6.76694 17.1819L6.90897 17.75H7.49455V17ZM16.4656 17V17.75H17.0452L17.1914 17.1891L16.4656 17ZM19.4094 5.51995L18.6804 5.34355L18.6804 5.34358L19.4094 5.51995ZM10.2438 9.54545L10.8172 10.0289L10.8172 10.0288L10.2438 9.54545ZM12.0372 6.5L12.6173 6.02459C12.454 5.82534 12.1998 5.72385 11.9442 5.75579C11.6886 5.78772 11.4673 5.94861 11.358 6.18191L12.0372 6.5ZM14.343 10.0317L13.6519 10.323L13.6519 10.323L14.343 10.0317ZM6.75 17V22H8.25V17H6.75ZM7.5 22.75H16.5V21.25H7.5V22.75ZM17.25 22V17H15.75V22H17.25ZM15.9675 1.25003H7.99275V2.75003H15.9675V1.25003ZM7.99275 1.25003C6.08675 1.25003 4.86461 1.89316 4.23233 2.9065C3.63039 3.87124 3.68083 4.99074 3.90659 5.73709L5.34234 5.30281C5.19991 4.83191 5.19862 4.19146 5.50493 3.70054C5.78091 3.25823 6.427 2.75003 7.99275 2.75003V1.25003ZM3.89686 5.70186L6.76694 17.1819L8.22216 16.8181L5.35207 5.33804L3.89686 5.70186ZM7.49455 17.75H16.4656V16.25H7.49455V17.75ZM16.4656 17C17.1914 17.1891 17.1914 17.1891 17.1914 17.189C17.1914 17.189 17.1914 17.1889 17.1915 17.1887C17.1915 17.1884 17.1916 17.188 17.1918 17.1875C17.1921 17.1864 17.1925 17.1848 17.1931 17.1826C17.1942 17.1783 17.1958 17.1719 17.1981 17.1634C17.2025 17.1465 17.209 17.1213 17.2176 17.0883C17.2348 17.0224 17.26 16.9254 17.2924 16.8011C17.3571 16.5524 17.4503 16.1942 17.564 15.7564C17.7914 14.8808 18.1012 13.6865 18.4304 12.4118C19.088 9.86526 19.8256 6.98888 20.1384 5.69632L18.6804 5.34358C18.371 6.62242 17.6367 9.48606 16.978 12.0367C16.649 13.3106 16.3395 14.5041 16.1122 15.3793C15.9985 15.8168 15.9054 16.1748 15.8407 16.4233C15.8084 16.5476 15.7832 16.6445 15.766 16.7103C15.7575 16.7432 15.7509 16.7684 15.7465 16.7853C15.7443 16.7937 15.7426 16.8001 15.7415 16.8044C15.741 16.8066 15.7405 16.8082 15.7403 16.8093C15.7401 16.8098 15.74 16.8102 15.7399 16.8105C15.7399 16.8106 15.7399 16.8107 15.7399 16.8108C15.7398 16.8108 15.7398 16.8109 16.4656 17ZM20.1384 5.69635C20.3141 4.96993 20.3476 3.85843 19.7404 2.89914C19.1009 1.88887 17.8815 1.24525 15.9656 1.25003L15.9694 2.75003C17.5408 2.7461 18.1897 3.25382 18.4729 3.70138C18.7885 4.19992 18.7992 4.85273 18.6804 5.34355L20.1384 5.69635ZM10.8172 10.0288C11.711 8.96857 12.3812 7.53391 12.7164 6.81809L11.358 6.18191C11.01 6.92489 10.4163 8.17724 9.67037 9.06205L10.8172 10.0288ZM11.4571 6.97541C11.7372 7.31715 12.197 7.93686 12.6381 8.59309C13.087 9.2609 13.4775 9.90939 13.6519 10.323L15.0341 9.7404C14.7986 9.18151 14.3351 8.42885 13.883 7.75629C13.4231 7.07214 12.935 6.41225 12.6173 6.02459L11.4571 6.97541ZM13.6519 10.323C13.766 10.5938 13.7121 10.9646 13.3923 11.3332C13.0754 11.6983 12.5722 11.9561 12.0372 11.9561V13.4561C13.0394 13.4561 13.9453 12.9845 14.5252 12.3163C15.102 11.6516 15.4324 10.6853 15.0341 9.74037L13.6519 10.323ZM12.0372 11.9561C11.5832 11.9561 11.0998 11.6556 10.8222 11.1947C10.5505 10.7436 10.5709 10.321 10.8172 10.0289L9.67038 9.06203C8.8918 9.98556 9.0403 11.1433 9.53723 11.9685C10.0283 12.7841 10.954 13.4561 12.0372 13.4561V11.9561Z" fill="#001C98"/>
</svg>
