<svg width="40" height="40" viewBox="0 0 40 40" fill="none" xmlns="http://www.w3.org/2000/svg">
<path fill-rule="evenodd" clip-rule="evenodd" d="M11.6667 21.25C10.0558 21.25 8.75 22.5558 8.75 24.1667C8.75 25.7775 10.0558 27.0833 11.6667 27.0833C13.2775 27.0833 14.5833 25.7775 14.5833 24.1667C14.5833 22.5558 13.2775 21.25 11.6667 21.25ZM6.25 24.1667C6.25 21.1751 8.67512 18.75 11.6667 18.75C14.6582 18.75 17.0833 21.1751 17.0833 24.1667C17.0833 27.1582 14.6582 29.5833 11.6667 29.5833C8.67512 29.5833 6.25 27.1582 6.25 24.1667Z" fill="white"/>
<path fill-rule="evenodd" clip-rule="evenodd" d="M28.3334 21.25C26.7226 21.25 25.4167 22.5558 25.4167 24.1667C25.4167 25.7775 26.7226 27.0833 28.3334 27.0833C29.9442 27.0833 31.2501 25.7775 31.2501 24.1667C31.2501 22.5558 29.9442 21.25 28.3334 21.25ZM22.9167 24.1667C22.9167 21.1751 25.3419 18.75 28.3334 18.75C31.325 18.75 33.7501 21.1751 33.7501 24.1667C33.7501 27.1582 31.325 29.5833 28.3334 29.5833C25.3419 29.5833 22.9167 27.1582 22.9167 24.1667Z" fill="white"/>
<path fill-rule="evenodd" clip-rule="evenodd" d="M19.9999 4.58334C18.3891 4.58334 17.0833 5.88918 17.0833 7.50001C17.0833 9.11084 18.3891 10.4167 19.9999 10.4167C21.6107 10.4167 22.9166 9.11084 22.9166 7.50001C22.9166 5.88918 21.6107 4.58334 19.9999 4.58334ZM14.5833 7.50001C14.5833 4.50847 17.0084 2.08334 19.9999 2.08334C22.9915 2.08334 25.4166 4.50847 25.4166 7.50001C25.4166 10.4916 22.9915 12.9167 19.9999 12.9167C17.0084 12.9167 14.5833 10.4916 14.5833 7.50001Z" fill="white"/>
<path fill-rule="evenodd" clip-rule="evenodd" d="M2.08325 36.6667C2.08325 31.374 6.37385 27.0833 11.6666 27.0833C16.9593 27.0833 21.2499 31.374 21.2499 36.6667C21.2499 37.357 20.6903 37.9167 19.9999 37.9167C19.3096 37.9167 18.7499 37.357 18.7499 36.6667C18.7499 32.7547 15.5786 29.5833 11.6666 29.5833C7.75457 29.5833 4.58325 32.7547 4.58325 36.6667C4.58325 37.357 4.02361 37.9167 3.33325 37.9167C2.6429 37.9167 2.08325 37.357 2.08325 36.6667Z" fill="white"/>
<path fill-rule="evenodd" clip-rule="evenodd" d="M18.75 36.6667C18.75 31.374 23.0406 27.0833 28.3333 27.0833C33.626 27.0833 37.9167 31.374 37.9167 36.6667C37.9167 37.357 37.357 37.9167 36.6667 37.9167C35.9763 37.9167 35.4167 37.357 35.4167 36.6667C35.4167 32.7547 32.2453 29.5833 28.3333 29.5833C24.4214 29.5833 21.25 32.7547 21.25 36.6667C21.25 37.357 20.6904 37.9167 20 37.9167C19.3096 37.9167 18.75 37.357 18.75 36.6667Z" fill="white"/>
<path fill-rule="evenodd" clip-rule="evenodd" d="M10.4167 20C10.4167 14.7073 14.7074 10.4167 20.0001 10.4167C25.2928 10.4167 29.5834 14.7073 29.5834 20C29.5834 20.6904 29.0238 21.25 28.3334 21.25C27.6431 21.25 27.0834 20.6904 27.0834 20C27.0834 16.088 23.9121 12.9167 20.0001 12.9167C16.0881 12.9167 12.9167 16.088 12.9167 20C12.9167 20.6904 12.3571 21.25 11.6667 21.25C10.9764 21.25 10.4167 20.6904 10.4167 20Z" fill="white"/>
</svg>
