<svg width="40" height="40" viewBox="0 0 40 40" fill="none" xmlns="http://www.w3.org/2000/svg">
<path fill-rule="evenodd" clip-rule="evenodd" d="M20.0001 4.58333C17.4688 4.58333 15.4167 6.63536 15.4167 9.16667C15.4167 11.698 17.4688 13.75 20.0001 13.75C22.5314 13.75 24.5834 11.698 24.5834 9.16667C24.5834 6.63536 22.5314 4.58333 20.0001 4.58333ZM12.9167 9.16667C12.9167 5.25465 16.0881 2.08333 20.0001 2.08333C23.9121 2.08333 27.0834 5.25465 27.0834 9.16667C27.0834 13.0787 23.9121 16.25 20.0001 16.25C16.0881 16.25 12.9167 13.0787 12.9167 9.16667Z" fill="white"/>
<path fill-rule="evenodd" clip-rule="evenodd" d="M18.3333 22.0833C10.5969 22.0833 4.58325 27.6275 4.58325 34.1667C4.58325 34.857 4.02361 35.4167 3.33325 35.4167C2.6429 35.4167 2.08325 34.857 2.08325 34.1667C2.08325 25.9781 9.50113 19.5833 18.3333 19.5833C19.0236 19.5833 19.5833 20.143 19.5833 20.8333C19.5833 21.5237 19.0236 22.0833 18.3333 22.0833Z" fill="white"/>
<path fill-rule="evenodd" clip-rule="evenodd" d="M29.1667 24.5833C27.0957 24.5833 25.4167 26.2623 25.4167 28.3333C25.4167 30.4044 27.0957 32.0833 29.1667 32.0833C31.2378 32.0833 32.9167 30.4044 32.9167 28.3333C32.9167 26.2623 31.2378 24.5833 29.1667 24.5833ZM22.9167 28.3333C22.9167 24.8816 25.715 22.0833 29.1667 22.0833C32.6185 22.0833 35.4167 24.8816 35.4167 28.3333C35.4167 31.7851 32.6185 34.5833 29.1667 34.5833C25.715 34.5833 22.9167 31.7851 22.9167 28.3333Z" fill="white"/>
<path fill-rule="evenodd" clip-rule="evenodd" d="M32.3333 30.9167C32.7475 30.3644 33.531 30.2525 34.0833 30.6667L37.4167 33.1667C37.9689 33.5809 38.0809 34.3644 37.6667 34.9167C37.2524 35.469 36.4689 35.5809 35.9167 35.1667L32.5833 32.6667C32.031 32.2525 31.9191 31.469 32.3333 30.9167Z" fill="white"/>
</svg>
