<svg width="348" height="234" viewBox="0 0 348 234" fill="none" xmlns="http://www.w3.org/2000/svg">
<path d="M348 121.5C348 183.632 270.098 234 174 234C77.9025 234 0 183.632 0 121.5C0 59.368 77.9025 9 174 9C270.098 9 348 59.368 348 121.5Z" fill="#0E9658"/>
<path d="M260.959 167.691C259.513 169.917 258.202 172.227 256.777 174.466C255.354 176.716 253.717 178.824 251.89 180.761C248.367 184.483 245.438 188.741 243.414 193.453C241.536 197.82 240.203 202.659 240.005 207.427C239.903 209.941 239.976 212.48 240.113 214.991C240.194 216.496 240.29 218.021 240.585 219.502C240.687 220 240.851 221.214 241.543 221.267V220.954L199.383 220.558C195.854 220.525 192.319 220.545 188.791 220.436C185.355 220.328 181.927 220.056 178.499 219.82C175.091 219.585 171.685 219.396 168.265 219.414C164.752 219.438 161.242 219.623 157.73 219.719C155.721 219.771 153.707 219.504 151.701 219.426C150.582 219.383 149.463 219.357 148.353 219.463C147.673 219.528 146.879 219.606 146.319 220.032L146.509 220.278C154.062 214.043 160.02 206.108 163.894 197.125C165.949 192.341 167.644 187.15 167.594 181.892C167.556 177.746 166.29 173.552 163.789 170.212C161.573 167.254 158.341 165.064 154.577 164.808C150.27 164.514 145.843 166.703 142.441 169.156C138.696 171.857 135.73 175.372 132.641 178.754C129.317 182.387 125.459 185.906 120.641 187.374C117.049 188.471 111.877 187.982 109.791 184.385C108.864 182.788 108.977 180.734 109.994 179.213C110.976 177.737 112.628 176.825 114.216 176.134C117.923 174.521 121.968 173.903 125.476 171.815C129.253 169.567 132.289 166.271 134.795 162.707C140.31 154.877 143.21 145.533 148.946 137.843C151.711 134.137 155.141 130.879 159.468 129.095C163.18 127.563 167.429 126.965 171.366 127.932C173.284 128.403 175.107 129.263 176.623 130.534C178.414 132.033 179.611 134.032 180.543 136.146C182.272 140.07 183.379 144.268 186.727 147.199C191.961 151.777 200.228 152.645 206.353 149.375C207.867 148.566 209.223 147.495 210.36 146.212C210.493 146.061 210.272 145.839 210.137 145.99C205.1 151.678 196.047 152.421 189.582 148.819C187.977 147.935 186.55 146.763 185.374 145.36C183.854 143.526 182.934 141.303 182.078 139.11C180.533 135.161 178.883 131.246 175.024 129.043C168.295 125.2 159.23 127.53 153.628 132.32C146.233 138.643 142.837 148.047 138.324 156.364C136.099 160.465 133.524 164.458 130.181 167.748C128.554 169.353 126.739 170.775 124.736 171.886C122.875 172.918 120.879 173.562 118.856 174.189C115.755 175.15 111.802 176.125 109.817 178.93C109.38 179.554 109.081 180.263 108.939 181.011C108.798 181.759 108.818 182.528 108.998 183.267C109.383 184.809 110.523 186.024 111.857 186.829C115.303 188.902 119.399 188.452 122.922 186.849C127.313 184.855 130.777 181.339 133.931 177.788C137.02 174.31 140.223 170.821 144.214 168.348C147.977 166.015 152.718 164.203 157.139 165.61C161.105 166.876 163.994 170.288 165.614 173.995C167.702 178.771 167.602 184.012 166.361 189.004C163.932 198.765 158.507 207.923 151.568 215.168C149.905 216.902 148.142 218.537 146.286 220.064C146.15 220.177 146.334 220.418 146.477 220.311C147.029 219.891 147.836 219.827 148.503 219.771C149.506 219.701 150.512 219.691 151.515 219.74C153.362 219.805 155.206 220.019 157.054 220.044C160.184 220.094 163.33 219.822 166.46 219.759C169.884 219.691 173.299 219.8 176.717 220.018C180.135 220.236 183.565 220.525 186.994 220.681C190.423 220.837 193.839 220.822 197.26 220.855L241.543 221.27C241.747 221.27 241.747 220.966 241.543 220.957C241.018 220.917 240.854 219.263 240.798 218.919C240.578 217.571 240.493 216.2 240.418 214.838C240.292 212.404 240.23 209.956 240.316 207.523C240.478 202.959 241.74 198.287 243.484 194.089C245.444 189.38 248.284 185.111 251.75 181.371C253.6 179.375 255.281 177.36 256.763 175.072C258.301 172.696 259.687 170.226 261.23 167.852C261.34 167.683 261.068 167.525 260.959 167.694V167.691Z" fill="#B4E08E"/>
<path d="M183.401 21.9971C178.02 17.0614 169.395 17.1588 164.283 22.421C161.856 24.9188 160.389 28.2826 160.327 31.7681C160.258 35.7231 161.759 39.4845 162.888 43.2103C164.032 46.9899 164.791 50.9551 163.285 54.7519C161.969 58.0691 159.369 60.6774 156.879 63.1539C154.368 65.6547 151.772 68.1524 150.037 71.2789C148.105 74.7634 147.232 78.7519 147.121 82.7131C146.869 91.688 150.522 100.186 153.851 108.337C156.902 115.815 160.399 123.391 166.827 128.599C173.314 133.856 181.53 136.648 189.216 139.652C197.971 143.076 206.88 146.292 216.137 148.075C220.598 148.934 225.134 149.452 229.681 149.459C234.298 149.467 238.795 148.812 243.308 147.922C247.955 147.009 252.644 146.102 257.395 146.691C261.862 147.246 266.243 148.786 270.781 148.627C274.261 148.515 277.582 147.146 280.125 144.774C282.613 142.479 284.396 139.5 285.82 136.466C287.422 133.048 288.609 129.45 289.811 125.879C291.309 121.428 292.704 116.924 293.568 112.303C295.195 103.598 294.472 94.7262 290.654 86.664C288.84 82.8317 286.137 79.5328 284.229 75.7593C283.227 73.8039 282.597 71.6798 282.373 69.4951C282.17 67.4314 282.204 65.3525 282.001 63.2887C281.656 59.8002 280.379 56.8187 277.569 54.6363C274.995 52.6385 271.902 51.4794 269.084 49.8872C267.647 49.076 266.261 48.148 265.118 46.9524C263.913 45.6939 263.074 44.1636 262.465 42.543C261.286 39.4064 260.887 36.0395 259.719 32.8998C258.6 29.8981 256.699 27.4926 253.69 26.229C250.351 24.8275 246.628 24.792 243.248 23.5234C235.886 20.7609 235.824 11.9686 231.451 6.51872C227.339 1.38629 220.354 -0.448235 214.007 0.0922866C206.363 0.742333 199.724 4.97321 194.114 9.94236C191.063 12.647 188.248 15.6041 185.448 18.5623C185.235 18.7885 185.578 19.1322 185.792 18.9051C191.307 13.0729 197.011 7.05924 204.287 3.41148C210.426 0.334657 217.801 -0.601368 224.303 1.9542C227.444 3.18837 230.208 5.30077 232.032 8.15042C233.882 11.0498 234.814 14.4014 236.344 17.461C237.81 20.4019 239.888 22.7465 243.009 23.9513C246.311 25.221 249.946 25.2697 253.239 26.5677C260.278 29.3373 259.781 37.4431 262.273 43.3726C263.468 46.2121 265.484 48.292 268.107 49.8801C270.804 51.5129 273.794 52.6264 276.412 54.396C277.754 55.3036 278.981 56.4049 279.85 57.7821C280.945 59.5173 281.361 61.5343 281.54 63.5565C281.716 65.533 281.69 67.5217 281.889 69.4971C282.068 71.3661 282.542 73.195 283.296 74.9156C284.931 78.6323 287.567 81.7953 289.465 85.3731C291.49 89.2084 292.859 93.3534 293.517 97.6377C294.931 106.82 292.602 115.914 289.733 124.586C288.532 128.217 287.344 131.882 285.786 135.381C284.401 138.494 282.691 141.567 280.254 143.987C277.615 146.608 274.238 148.086 270.5 148.155C266.058 148.237 261.775 146.752 257.401 146.212C253.028 145.671 248.681 146.382 244.385 147.221C239.802 148.117 235.265 148.911 230.581 148.974C221.474 149.095 212.479 147.128 203.841 144.404C199.528 143.043 195.28 141.487 191.063 139.858C186.949 138.27 182.826 136.681 178.781 134.921C175.154 133.341 171.589 131.55 168.391 129.203C165.014 126.724 162.257 123.595 160.053 120.049C157.917 116.625 156.27 112.931 154.731 109.211C153.042 105.125 151.337 101.023 149.976 96.8143C147.401 88.8586 146.178 79.7133 150.205 71.9959C153.42 65.8352 160.04 62.3182 163.185 56.1362C164.756 53.0462 164.907 49.6936 164.209 46.3419C163.408 42.5045 161.762 38.8912 161.086 35.0244C160.425 31.2458 161.052 27.5088 163.302 24.3488C165.533 21.2142 169.05 19.1333 172.911 18.8595C176.602 18.5978 180.326 19.8401 183.055 22.3429C183.284 22.5529 183.629 22.2111 183.398 22.0002L183.401 21.9971Z" fill="#BF7E00"/>
<path d="M203.642 2.6083C206.955 1.45312 210.449 0.900116 213.957 0.975574C222.539 1.19158 230.812 5.40218 236.412 11.8266C238.898 14.6793 239.983 19.5146 242.568 21.9474C245.938 25.1165 250.233 24.6977 252.845 29.5269C255.058 33.6209 255.804 38.3832 258.061 42.4538C261.979 49.513 269.703 53.387 276.127 58.2912C288.912 68.05 297.347 83.2779 298.826 99.2614C299.365 105.095 298.813 111.526 294.854 115.854C291.488 119.533 285.905 121.447 284.298 126.164C283.676 127.995 283.782 129.98 283.586 131.905C282.671 141.043 274.856 148.311 266.189 151.415C256.374 154.931 246.844 153.68 236.832 153.275C226.82 152.87 217.066 156.067 207.199 155.896C197.675 155.73 187.695 153.708 178.185 152.715C174.988 152.382 171.224 151.99 168.493 150.127C165.535 148.11 165.727 145.564 163.899 143.041C160.488 138.339 151.797 136.949 152.683 129.36C153.124 125.593 156.401 122.854 158.054 119.438C162.549 110.154 152.647 103.197 150.936 94.6624C148.699 83.5071 156.944 73.5455 157.39 62.3831C157.632 56.3431 157.187 50.2736 157.806 44.2609C158.442 38.0647 160.349 31.4071 164.991 26.9693C169.396 22.7557 174.334 22.8997 179.704 21.1889C184.707 19.5937 186.076 16.3921 189.339 12.5071C193.127 8.00236 198.06 4.53106 203.642 2.6083Z" fill="#EC9C00"/>
<path d="M228.87 162.558C228.812 162.558 228.755 162.545 228.704 162.519C228.652 162.493 228.608 162.453 228.576 162.405C228.545 162.356 228.527 162.3 228.525 162.242C228.438 160.598 228.53 158.949 228.799 157.325C230.351 147.996 236.552 140.962 242.548 134.161C245.643 130.652 248.841 127.024 251.339 123.14C253.95 119.083 256.945 112.796 256.391 105.864C256.156 102.923 255.17 100.084 253.467 97.4207C252.675 96.1825 251.775 94.9869 250.904 93.8358C250.074 92.7355 249.216 91.5977 248.451 90.4213C246.713 87.7481 245.799 85.1611 245.656 82.5113C245.498 79.5896 246.143 76.6842 246.767 73.873L246.863 73.442C247.588 70.1675 248.168 67.2093 247.923 64.1761C247.673 61.3029 246.846 58.5092 245.49 55.9618C244.14 53.4067 242.304 51.1382 240.085 49.2828C238.095 47.6339 235.687 46.3602 232.504 45.2761L231.885 45.0662C229.468 44.2549 226.97 43.4101 225.15 41.5878C223.281 39.7157 222.918 37.2017 222.567 34.7709C222.515 34.4028 222.46 34.0225 222.401 33.6554C221.446 27.6599 217.152 22.6117 211.464 20.7934C205.815 18.9872 199.214 20.698 195.036 25.0526C195.002 25.0915 194.958 25.1204 194.909 25.1359C194.859 25.1515 194.807 25.1532 194.756 25.1409C194.698 25.1253 194.645 25.0949 194.602 25.0526C194.559 25.0103 194.528 24.9575 194.511 24.8995C194.495 24.8446 194.494 24.7863 194.508 24.7308C194.522 24.6752 194.551 24.6246 194.592 24.5841C195.549 23.5843 196.629 22.7096 197.807 21.9809C200.231 20.493 202.99 19.6323 205.832 19.4771C208.673 19.3082 211.508 19.8922 214.05 21.1696C216.56 22.4628 218.71 24.3561 220.308 26.6803C221.861 28.9255 222.762 31.4608 223.23 34.9017L223.238 34.9565C223.449 36.505 223.667 38.1063 224.402 39.5048C225.066 40.7673 226.184 41.8372 227.724 42.6891C229.178 43.4923 230.775 44.0297 232.328 44.55C233.567 44.9668 234.848 45.3968 236.051 45.9616C241.003 48.285 245.041 52.669 247.128 57.99C248.149 60.5505 248.659 63.2848 248.63 66.04C248.592 68.6635 248.012 71.2647 247.452 73.7808C247.337 74.298 247.222 74.8141 247.111 75.3293C246.467 78.3422 245.85 81.8328 246.704 85.1459C247.497 88.2349 249.528 90.9365 251.162 93.1067L251.431 93.4657C253.09 95.6663 254.804 97.941 255.832 100.555C256.838 103.11 257.256 105.922 257.061 108.915C256.71 114.433 254.417 120.148 250.238 125.9C248.059 128.9 245.56 131.72 243.152 134.447C240.928 136.962 238.628 139.562 236.584 142.294C231.266 149.403 228.843 155.931 229.176 162.252C229.181 162.303 229.172 162.354 229.15 162.4C229.128 162.446 229.094 162.485 229.051 162.513C228.997 162.545 228.934 162.561 228.87 162.558ZM206.827 19.9192C208.417 19.9153 209.998 20.1579 211.513 20.6382C214.379 21.5689 216.924 23.2874 218.854 25.5962C220.799 27.8879 222.08 30.6651 222.56 33.629C222.62 34.0012 222.675 34.3825 222.728 34.7516C223.075 37.1561 223.434 39.6427 225.265 41.4772C227.058 43.2722 229.536 44.1078 231.936 44.9161L232.557 45.126C235.758 46.2172 238.183 47.5 240.184 49.1612C242.42 51.0298 244.269 53.3149 245.629 55.8888C246.995 58.4559 247.828 61.2709 248.079 64.166C248.326 67.2225 247.745 70.1918 247.018 73.4796L246.922 73.9106C246.3 76.7115 245.657 79.6068 245.813 82.5052C245.956 85.1236 246.861 87.6842 248.583 90.3331C249.344 91.5054 250.202 92.6402 251.029 93.7385C251.902 94.8946 252.804 96.0912 253.599 97.3335C255.319 100.022 256.31 102.888 256.548 105.852C257.107 112.824 254.096 119.148 251.473 123.227C248.968 127.121 245.765 130.755 242.667 134.268C236.686 141.052 230.501 148.067 228.956 157.352C228.688 158.964 228.597 160.601 228.683 162.233C228.684 162.263 228.692 162.292 228.709 162.317C228.725 162.342 228.748 162.362 228.775 162.375C228.802 162.39 228.834 162.398 228.865 162.398C228.897 162.398 228.928 162.39 228.956 162.375C228.974 162.362 228.989 162.344 228.998 162.324C229.007 162.303 229.011 162.28 229.008 162.258C228.672 155.899 231.106 149.336 236.447 142.196C238.496 139.458 240.797 136.856 243.024 134.338C245.433 131.614 247.926 128.797 250.1 125.803C254.257 120.077 256.543 114.391 256.892 108.903C257.081 105.934 256.671 103.144 255.672 100.612C254.655 98.0191 252.943 95.7525 251.292 93.56L251.021 93.201C249.38 91.0197 247.337 88.3039 246.537 85.1834C245.679 81.8369 246.299 78.324 246.943 75.2938C247.053 74.7776 247.168 74.2614 247.284 73.7442C247.842 71.2353 248.421 68.6423 248.458 66.037C248.486 63.3026 247.98 60.5888 246.967 58.0478C244.895 52.7643 240.887 48.4137 235.972 46.1066C234.777 45.5458 233.5 45.1169 232.266 44.7021C230.71 44.1798 229.102 43.6393 227.635 42.829C226.067 41.963 224.928 40.8698 224.248 39.5839C223.5 38.1641 223.28 36.5415 223.068 34.9828L223.06 34.9271C222.595 31.5125 221.702 28.9986 220.164 26.7766C218.581 24.4735 216.45 22.5979 213.961 21.3177C208.972 18.7743 202.809 19.0866 197.878 22.1219C196.712 22.8433 195.642 23.7095 194.694 24.6997C194.673 24.7197 194.658 24.7452 194.651 24.7734C194.643 24.8015 194.644 24.8312 194.653 24.859C194.662 24.8895 194.678 24.9173 194.7 24.9399C194.723 24.9626 194.75 24.9793 194.781 24.9888C194.804 24.9936 194.827 24.9921 194.849 24.9844C194.871 24.9767 194.89 24.9631 194.905 24.9452C198.018 21.7091 202.437 19.9192 206.827 19.9192Z" fill="#FFF2D9"/>
<path d="M231.361 128.851C231.806 125.115 232.045 122.896 234.185 120.434C235.882 118.484 237.541 117.416 237.273 114.285C237.006 111.188 235.21 108.521 233.762 105.815C232.314 103.108 231.158 99.8313 232.251 96.9472C232.951 95.0964 234.454 93.7497 235.688 92.2437C236.921 90.7377 237.962 88.7389 237.442 86.8233C236.617 83.7809 232.544 82.9615 231.41 80.0368C230.504 77.7044 231.845 75.1011 231.844 72.578C231.844 69.0367 229.098 66.0228 225.965 64.7552C222.101 63.1894 218.464 64.0625 214.559 64.0453C210.112 64.026 205.669 62.4988 201.215 62.4988C196.6 62.016 196.195 61.3832 194.185 56.9374C192.557 53.295 191.186 49.5434 190.084 45.7101C189.575 43.9527 186.728 36.7636 187.565 35.21C181.282 46.7993 177.502 59.5487 176.831 72.9786C176.579 78.0208 176.775 83.1958 178.479 87.9114C179.3 90.181 180.472 92.3654 180.694 94.784C181.252 100.856 173.558 102.903 173.09 108.635C172.676 113.686 178.581 116.859 179.691 121.792C180.396 124.916 179.047 128.115 178.842 131.325C178.428 137.838 183.143 143.969 189.012 145.994C194.88 148.019 201.493 146.437 206.724 142.965C209.704 140.987 212.745 138.3 216.239 138.732C218.332 138.99 220.198 140.371 222.296 140.569C224.94 140.819 227.482 139.082 228.989 136.77C230.569 134.349 231.032 131.609 231.361 128.851Z" fill="#CF8900"/>
<path d="M208.323 83.1015C210.883 82.4413 215.829 83.6957 217.953 85.58C220.54 87.8759 220.557 92.9982 221.326 96.2008C222.579 101.417 223.83 106.634 225.081 111.852C225.766 114.705 226.403 117.936 224.902 120.423C223.249 123.161 219.768 123.757 216.708 124.089L205.363 125.318C201.618 125.724 197.69 126.105 194.209 124.588C190.728 123.071 187.938 118.983 189.05 115.18C190.179 111.326 194.43 109.682 196.94 106.641C199.807 103.166 200.161 98.2077 201.046 93.6929C201.931 89.178 204.086 84.1926 208.323 83.1015Z" fill="#FF917B"/>
<path d="M221.449 89.0269C224.874 85.9481 227.38 81.8632 228.93 77.4214C230.947 71.641 232.367 64.5574 227.266 59.9371C223.935 56.9201 219.146 56.0023 215.2 54.2337C210.672 52.2055 205.824 51.0778 201.289 49.0526C194.706 46.1117 190.696 41.7774 187.712 35.1471C185.685 41.4093 184.508 48.4736 183.99 55.0998C183.405 62.5779 184.355 70.2009 186.879 77.2206C188.985 83.0771 192.324 88.7146 197.421 91.9141C204.813 96.5567 214.895 94.9179 221.449 89.0269Z" fill="#FEA587"/>
<path d="M222.049 114.602C221.98 114.681 221.909 114.76 221.839 114.838C218.884 118.127 214.852 120.26 210.464 120.854C206.076 121.449 201.619 120.467 197.892 118.083C195.18 116.35 192.867 113.78 192.106 110.66C191.834 109.544 186.274 109.971 185.459 110.013C182.92 110.142 180.406 110.566 177.967 111.278C168.532 114.021 161.207 120.178 156.029 128.424C151.97 134.887 149.273 142.089 146.605 149.236C143.383 157.861 139.491 166.495 136.872 175.317C135.448 180.104 135.376 189.374 139.032 193.02C141.879 195.441 146.281 194.572 149.608 192.851C158.23 188.389 163.946 178.837 163.788 169.151C163.817 170.948 165.08 173.086 165.28 174.979C165.479 176.872 165.607 178.787 165.899 180.735C166.564 185.215 166.681 189.759 166.247 194.267C165.387 203.272 162.374 212.086 157.385 219.652C158.091 218.714 168.442 220.509 169.962 220.626L183.737 221.693C187.762 222.006 191.748 222.687 195.763 223.104C197.707 223.307 199.802 223.63 201.758 223.485C203.238 223.376 204.605 222.877 206.108 222.734C214.149 221.984 222.042 220.365 229.654 217.648C231.763 216.895 233.947 215.981 235.438 214.245C237.034 212.387 236.118 209.867 236.038 207.573C235.847 202.015 236.38 196.456 237.623 191.035C239.827 181.42 245.936 173.564 247.474 163.908C248.624 156.691 248.31 149.59 250.413 142.463C252.04 136.936 254.052 131.741 253.139 125.849C252.359 120.81 249.618 116.029 245.426 113.109C242.207 110.867 238.141 109.805 234.24 110.27C231.403 110.609 226.84 110.168 224.517 111.994C223.568 112.738 222.836 113.703 222.049 114.602Z" fill="#B4E08E"/>
<path d="M191.766 215.301H67.5982C65.5421 215.301 63.8753 216.963 63.8753 219.014V219.015C63.8753 221.065 65.5421 222.728 67.5982 222.728H191.766C193.822 222.728 195.489 221.065 195.489 219.015V219.014C195.489 216.963 193.822 215.301 191.766 215.301Z" fill="#122C51"/>
<path d="M140.156 222.729H44.6461C40.8906 222.729 37.2825 219.692 36.5859 215.948L25.121 154.279C24.4244 150.534 26.9047 147.499 30.6592 147.499H126.172C129.927 147.499 133.536 150.534 134.232 154.279L145.7 215.948C146.391 219.692 143.912 222.729 140.156 222.729Z" fill="#164778"/>
<path d="M85.19 187.85C86.453 186.468 86.1251 184.119 84.4578 182.604C82.7904 181.088 80.415 180.98 79.152 182.361C77.8891 183.743 78.2169 186.092 79.8843 187.607C81.5516 189.123 83.9271 189.232 85.19 187.85Z" fill="#2D79AB"/>
<path d="M206.929 61.8447C207.212 61.9022 207.487 61.9924 207.749 62.1134C208.518 62.4917 209.008 63.2918 209.216 64.1213C209.425 64.9509 209.387 65.82 209.349 66.6739C206.714 65.0928 203.791 64.0465 200.748 63.595C200.699 63.5879 200.822 62.4065 200.897 62.2858C201.189 61.8122 202.004 61.8274 202.504 61.7118C203.944 61.3802 205.497 61.512 206.929 61.8447Z" fill="#36353D"/>
<path d="M218.858 50.1519C216.006 50.1524 213.262 51.2359 211.183 53.182C209.104 55.1281 207.846 57.7909 207.665 60.6287C205.672 60.1893 203.61 60.1627 201.606 60.5506C201.133 57.6529 199.553 55.0502 197.199 53.2875C194.845 51.5247 191.898 50.7387 188.975 51.0938C186.053 51.4489 183.381 52.9177 181.52 55.1926C179.659 57.4676 178.753 60.3723 178.991 63.2987C179.229 66.225 180.593 68.9461 182.797 70.8922C185.001 72.8383 187.875 73.8586 190.817 73.7393C193.759 73.6201 196.54 72.3707 198.579 70.2526C200.618 68.1345 201.756 65.312 201.755 62.376V62.369C203.9 62.016 205.442 62.0485 207.697 62.4643C207.916 64.6177 208.756 66.6615 210.117 68.3481C211.477 70.0346 213.299 71.2914 215.361 71.966C217.423 72.6406 219.638 72.7041 221.735 72.1488C223.833 71.5936 225.724 70.4433 227.18 68.8375C228.635 67.2318 229.592 65.2395 229.935 63.1022C230.277 60.9649 229.991 58.7744 229.11 56.7962C228.229 54.8181 226.791 53.1373 224.972 51.9576C223.152 50.7779 221.028 50.1499 218.858 50.1499V50.1519ZM190.353 71.7921C188.486 71.7921 186.661 71.24 185.108 70.2055C183.556 69.1711 182.346 67.7009 181.631 65.9807C180.917 64.2605 180.73 62.3676 181.094 60.5415C181.459 58.7154 182.358 57.0379 183.678 55.7214C184.998 54.4048 186.68 53.5082 188.511 53.145C190.343 52.7817 192.241 52.9681 193.966 53.6807C195.691 54.3932 197.165 55.5998 198.202 57.1479C199.24 58.6961 199.793 60.5162 199.793 62.3781C199.793 64.8747 198.798 67.2691 197.028 69.0345C195.258 70.7999 192.857 71.7918 190.353 71.7921ZM218.858 70.6005C217.021 70.6003 215.225 70.0569 213.698 69.0391C212.171 68.0213 210.981 66.5747 210.278 64.8823C209.575 63.1899 209.391 61.3277 209.75 59.5311C210.108 57.7345 210.993 56.0843 212.292 54.7891C213.591 53.4939 215.246 52.6119 217.047 52.2546C218.849 51.8973 220.716 52.0808 222.413 52.7818C224.11 53.4829 225.561 54.67 226.581 56.1931C227.602 57.7162 228.146 59.5068 228.146 61.3386C228.147 62.5552 227.907 63.7599 227.44 64.884C226.973 66.0081 226.289 67.0294 225.426 67.8898C224.564 68.7501 223.54 69.4326 222.413 69.8983C221.286 70.3639 220.078 70.6035 218.858 70.6035V70.6005Z" fill="#303243"/>
<path d="M193.797 60.6784C193.314 61.4603 192.796 62.2128 192.25 62.9419L194.355 58.4616C194.896 57.3095 193.604 56.3259 192.626 57.128C191.852 57.7642 191.128 58.4578 190.459 59.2029C191.011 58.0421 191.6 56.8971 192.227 55.7681C192.812 54.7185 191.329 53.4448 190.499 54.4345L182.691 63.6853C181.782 64.7623 183.335 66.322 184.251 65.2409L186.71 62.3274C186.022 64.0852 185.412 65.8751 184.88 67.6971C184.536 68.8867 186.286 69.6452 186.898 68.5449C187.444 67.5602 187.995 66.5755 188.572 65.604L187.373 68.1555C186.839 69.2923 188.13 70.3186 189.102 69.489C189.316 69.3075 189.522 69.1199 189.731 68.9333C190.207 69.3156 190.985 69.3633 191.402 68.693L195.703 61.7838C196.45 60.579 194.542 59.4767 193.797 60.6784Z" fill="#F2F2F2"/>
<path d="M222.976 59.9442C222.493 60.7271 221.975 61.4796 221.428 62.2087L223.534 57.7284C224.075 56.5763 222.783 55.5927 221.805 56.3948C221.031 57.031 220.307 57.7246 219.638 58.4697C220.19 57.3089 220.78 56.1636 221.406 55.0339C221.992 53.9843 220.508 52.7115 219.677 53.7003L211.87 62.9521C210.961 64.0291 212.514 65.5888 213.43 64.5077L215.889 61.5942C215.201 63.352 214.591 65.1415 214.059 66.9629C213.714 68.1524 215.464 68.911 216.075 67.8107C216.621 66.827 217.173 65.8413 217.75 64.8698L216.551 67.4223C216.017 68.5591 217.308 69.5854 218.28 68.7558C218.494 68.5743 218.7 68.3857 218.909 68.1991C219.384 68.5814 220.162 68.6291 220.579 67.9587L224.881 61.0506C225.628 59.8448 223.728 58.7384 222.976 59.9442Z" fill="#F2F2F2"/>
<path d="M173.743 227L207.2 226.361L188.439 171.823L154.982 172.462L173.743 227Z" fill="#EAEEF7"/>
<path d="M255.905 204.503C254.304 204.63 252.703 204.765 251.103 204.909C248.542 205.137 246.084 205.334 243.531 205.731L218.497 209.618C212.992 210.473 207.392 211.33 201.858 210.619C200.536 210.449 199.204 210.188 197.872 210.272C196.54 210.356 195.161 210.843 194.38 211.88C193.599 212.916 193.649 214.565 194.72 215.336C193.656 216.735 194.313 219.026 195.981 219.713C195.853 220.078 195.828 220.472 195.911 220.851C195.993 221.23 196.179 221.578 196.448 221.858C196.724 222.142 197.081 222.336 197.471 222.413C197.83 222.488 198.268 222.4 198.599 222.515C198.421 223.086 198.468 223.545 199.037 223.947C199.461 224.245 199.993 224.352 200.51 224.441C201.469 224.598 202.437 224.69 203.408 224.715C204.273 224.736 205.201 224.806 206.052 224.715C208.059 224.512 210.025 224.063 212 223.691C231.96 219.939 253.272 224.476 272.813 219.229C275.26 218.572 277.919 217.543 278.867 215.375C279.793 213.252 278.683 210.773 277.007 209.056C274.494 206.481 270.819 205.06 267.115 204.512C263.411 203.964 259.635 204.209 255.905 204.503Z" fill="#FEA587"/>
<path d="M261.419 130.579C256.861 122.078 250.85 114.873 241.647 111.142C238.596 109.906 234.427 111.852 232.276 114.048C227.629 118.785 227.981 126.351 228.943 132.911C229.713 138.171 230.553 143.385 231.172 148.629C231.471 151.165 233.058 153.571 234.167 155.83C235.511 158.566 236.883 161.29 238.282 164C241.319 169.882 244.483 175.696 247.774 181.443C250.908 186.913 254.54 192.182 257.241 197.872C255.873 197.821 255.199 197.857 254.143 198.444C253.33 198.894 252.693 199.411 251.79 199.762C250.239 200.358 248.151 200.661 247.417 202.378C246.992 203.371 247.238 204.542 247.766 205.484C248.294 206.425 249.075 207.195 249.8 208.001C253.406 212.052 255.618 217.147 256.113 222.542L282.179 222.624C284.263 222.63 286.38 222.632 288.382 222.056C297.053 219.564 295.268 208.922 293.102 202.421C293.02 202.175 292.936 201.93 292.85 201.686C284.192 177.225 273.685 153.454 261.419 130.579Z" fill="#B4E08E"/>
</svg>
